<?xml version="1.0" standalone="no"?>
<!DOCTYPE svg PUBLIC "-//W3C//DTD SVG 20010904//EN"
 "http://www.w3.org/TR/2001/REC-SVG-20010904/DTD/svg10.dtd">
<svg version="1.0" xmlns="http://www.w3.org/2000/svg"
 width="300.000000pt" height="306.000000pt" viewBox="0 0 300.000000 406.000000"
 preserveAspectRatio="xMidYMid meet">
<metadata>
Created by potrace 1.10, written by Peter Selinger 2001-2011
</metadata>
<g transform="translate(0.000000,406.000000) scale(0.100000,-0.100000)"
fill="gray" stroke="none">
<path d="M1176 4034 c-168 -30 -355 -107 -492 -200 -162 -111 -260 -217 -330
-359 -61 -124 -78 -197 -78 -330 0 -164 38 -280 146 -453 l40 -63 87 83 c47
46 112 101 144 122 57 39 57 40 39 60 -52 59 -92 165 -92 247 0 209 224 432
510 508 183 49 432 54 599 12 153 -39 326 -134 422 -232 150 -154 167 -361 43
-523 -19 -25 -31 -46 -26 -46 15 0 137 -96 209 -165 l68 -65 27 32 c81 98 151
268 169 409 41 333 -184 675 -565 855 -155 73 -368 124 -520 124 -87 0 -77
-12 17 -21 171 -17 213 -25 325 -61 318 -101 558 -301 670 -555 40 -92 56
-192 49 -313 -6 -100 -11 -121 -60 -239 -28 -69 -101 -191 -114 -191 -3 0 -37
30 -75 66 -38 36 -91 81 -118 100 l-48 35 34 56 c41 68 53 106 61 194 11 125
-53 264 -168 363 -109 94 -291 183 -429 211 -183 37 -512 17 -645 -40 -16 -7
-46 -19 -65 -26 -19 -7 -73 -38 -120 -69 -236 -155 -329 -379 -240 -575 17
-38 39 -78 48 -88 15 -17 15 -19 -1 -29 -25 -13 -123 -93 -175 -142 -24 -23
-47 -42 -52 -44 -5 -2 -21 16 -37 40 -15 24 -30 45 -34 48 -13 12 -78 179 -89
230 -17 82 -11 252 12 333 48 176 164 329 347 461 85 60 257 150 311 161 19 4
46 13 60 20 37 18 171 43 280 52 30 3 59 9 65 14 14 14 -118 9 -209 -7z"/>
<path d="M790 2263 l0 -372 -54 -11 c-247 -51 -417 -282 -378 -511 16 -91 61
-180 126 -245 61 -60 131 -99 234 -129 l74 -22 -2 -196 -1 -196 68 -32 c82
-37 272 -101 366 -122 l67 -15 1 386 0 387 264 240 c274 249 328 288 416 300
94 13 223 -31 286 -97 80 -83 101 -215 50 -314 -65 -127 -224 -197 -366 -160
-78 20 -118 46 -219 141 l-82 77 -63 -58 c-34 -32 -62 -60 -62 -64 0 -10 167
-159 214 -190 77 -52 146 -73 257 -78 170 -7 282 31 395 135 123 114 169 281
120 441 -62 206 -246 332 -486 335 -108 1 -175 -17 -263 -70 -34 -21 -195
-159 -358 -308 -162 -148 -314 -285 -337 -302 -93 -72 -239 -89 -339 -40 -161
79 -221 234 -148 383 54 109 156 168 295 168 95 1 155 -30 274 -139 l94 -84
58 50 c33 28 62 56 66 62 3 5 -10 25 -31 44 l-36 34 2 262 3 262 723 3 c425 1
722 6 722 11 0 18 -100 158 -159 222 -33 37 -93 92 -134 123 l-73 56 -792 2
-792 3 0 -372z m1630 305 c79 -59 179 -164 245 -256 30 -43 35 -56 24 -62 -7
-5 -320 -9 -695 -9 -486 1 -688 -2 -703 -10 -20 -11 -21 -19 -22 -259 -1 -307
-3 -291 30 -325 l28 -29 -42 -39 c-23 -21 -46 -39 -50 -39 -7 0 -78 60 -169
142 -34 31 -110 60 -168 66 -203 18 -365 -106 -384 -295 -12 -114 58 -229 178
-293 59 -32 69 -34 158 -35 121 0 186 26 275 111 27 26 190 175 304 279 25 22
74 68 110 102 169 158 234 204 324 232 96 29 244 24 339 -12 168 -64 261 -175
289 -344 43 -261 -185 -493 -483 -493 -144 0 -261 59 -423 213 l-40 37 42 40
c23 22 46 40 51 40 5 0 35 -25 67 -55 32 -31 71 -63 86 -72 16 -10 29 -21 29
-25 0 -4 7 -8 15 -8 8 0 15 -4 15 -8 0 -17 149 -56 187 -49 67 12 148 39 177
59 190 134 194 390 8 514 -133 89 -326 81 -432 -17 -14 -13 -46 -42 -70 -63
-25 -22 -97 -87 -160 -145 -63 -58 -140 -128 -170 -156 -30 -27 -71 -66 -91
-85 l-35 -35 1 -368 2 -368 -36 5 c-69 11 -96 16 -116 25 -11 5 -55 21 -98 36
-102 35 -187 74 -193 89 -2 6 -5 92 -7 191 -1 99 -6 186 -10 192 -4 7 -27 18
-50 24 -181 49 -273 117 -340 249 -30 61 -32 70 -32 175 0 106 1 114 34 178
30 58 89 125 153 172 35 26 98 54 148 65 83 18 91 21 85 31 -4 5 -2 9 2 9 5 0
9 154 8 343 -1 188 1 350 3 359 4 17 52 18 775 18 l771 -1 56 -41z"/>
<path d="M1215 1760 c10 -11 20 -20 23 -20 3 0 -3 9 -13 20 -10 11 -20 20 -23
20 -3 0 3 -9 13 -20z"/>
<path d="M2730 2333 c86 -167 130 -345 137 -553 14 -392 -125 -747 -403 -1024
-198 -199 -426 -321 -714 -382 -118 -25 -390 -26 -513 -1 -287 58 -541 198
-743 409 -188 198 -312 442 -361 711 -24 136 -22 372 6 504 23 110 58 218 98
298 48 95 4 29 -56 -85 -102 -195 -172 -444 -170 -600 1 -60 2 -62 9 -25 4 22
13 78 20 125 13 93 36 190 47 201 5 5 7 -63 6 -150 -2 -131 1 -178 21 -282 28
-141 76 -283 138 -402 42 -80 155 -239 216 -304 16 -17 27 -35 23 -38 -3 -4
-1 -5 5 -3 7 1 20 -6 30 -18 11 -11 55 -48 99 -82 44 -34 87 -68 95 -76 8 -7
29 -20 45 -28 287 -150 482 -201 754 -197 73 0 147 5 165 9 17 4 63 13 101 20
148 27 372 123 503 217 76 54 192 151 222 184 41 47 150 187 150 194 0 4 11
21 25 39 34 45 108 206 139 302 58 181 68 252 64 471 -2 110 -6 199 -10 196
-5 -2 -8 4 -8 14 0 10 -3 29 -5 43 -3 14 -2 18 1 10 4 -8 10 -17 14 -20 25
-17 79 -251 94 -409 7 -78 16 -75 16 7 0 145 -65 393 -147 556 -34 69 -141
246 -148 246 -2 0 14 -35 35 -77z m-2624 -400 c-11 -11 -19 6 -11 24 8 17 8
17 12 0 3 -10 2 -21 -1 -24z"/>
<path d="M11 1393 c-2 -154 66 -403 160 -583 201 -385 547 -657 974 -765 106
-27 303 -46 275 -26 -8 6 -33 11 -56 11 -42 0 -148 16 -174 27 -8 3 -24 7 -35
9 -103 17 -405 141 -405 166 0 5 -4 6 -10 3 -5 -3 -10 -1 -10 4 0 6 -7 11 -15
11 -8 0 -15 5 -15 10 0 6 -5 10 -10 10 -33 0 -251 196 -338 304 -68 83 -84
110 -74 121 4 3 1 5 -6 3 -14 -3 -105 160 -148 266 -34 84 -71 231 -85 333 -6
48 -15 106 -19 128 -7 35 -8 31 -9 -32z"/>
<path d="M2978 1430 c-4 -19 -10 -64 -13 -100 -14 -157 -87 -386 -171 -539
-114 -208 -339 -446 -519 -548 -77 -44 -261 -133 -283 -136 -12 -2 -25 -6 -28
-10 -4 -4 -20 -7 -35 -7 -15 0 -30 -4 -33 -9 -3 -5 -20 -11 -38 -14 -18 -3
-66 -12 -106 -21 -40 -8 -93 -16 -117 -17 -68 -4 -79 -19 -14 -19 136 0 385
68 546 148 280 141 533 394 673 672 87 173 154 430 148 566 -3 58 -4 63 -10
34z"/>
</g>
</svg>
