<?xml version="1.0" standalone="no"?>
<!DOCTYPE svg PUBLIC "-//W3C//DTD SVG 20010904//EN"
 "http://www.w3.org/TR/2001/REC-SVG-20010904/DTD/svg10.dtd">
<svg version="1.0" xmlns="http://www.w3.org/2000/svg"
 width="300.000000pt" height="147.000000pt" viewBox="0 0 300.000000 147.000000"
 preserveAspectRatio="xMidYMid meet">
<metadata>
Created by potrace 1.10, written by Peter Selinger 2001-2011
</metadata>
<g transform="translate(0.000000,147.000000) scale(0.100000,-0.100000)"
fill="gray" stroke="none">
<path d="M228 1462 c10 -7 6 -12 -16 -21 -42 -17 -92 -69 -113 -116 -33 -71
-29 -77 81 -145 55 -35 100 -67 100 -73 0 -5 -11 -2 -25 7 -34 22 -45 20 -15
-4 35 -27 45 -25 94 20 51 47 86 114 86 165 0 82 -70 157 -160 169 -27 4 -40
3 -32 -2z m97 -51 c77 -52 90 -121 39 -207 -49 -83 -50 -84 -158 -18 -88 54
-96 61 -96 90 0 63 108 180 155 168 11 -3 38 -18 60 -33z"/>
<path d="M121 1412 c-51 -51 -89 -138 -75 -170 4 -9 8 -23 10 -31 1 -7 7 -18
13 -24 6 -6 11 -22 11 -37 l0 -25 20 25 19 25 -30 19 c-16 10 -27 21 -25 24 3
3 38 -16 77 -42 39 -26 73 -46 75 -43 2 2 -32 27 -76 55 -55 35 -80 57 -80 70
0 53 64 146 125 184 28 17 28 18 7 18 -14 0 -41 -18 -71 -48z"/>
<path d="M2621 1429 c-73 -29 -120 -97 -121 -175 0 -46 43 -121 90 -154 38
-27 96 -51 104 -43 7 7 51 15 84 15 22 0 22 1 6 19 -16 18 -17 18 -48 -3 l-31
-21 28 30 c21 22 34 29 52 25 17 -3 27 1 31 12 10 25 -4 32 -20 10 -8 -10 -17
-16 -20 -13 -3 3 17 27 46 55 46 44 58 45 20 2 -12 -15 -13 -20 -1 -34 12 -15
14 -13 21 12 28 95 12 152 -58 214 -63 55 -126 72 -183 49z m119 -25 c33 -16
94 -81 113 -120 l16 -31 -94 -93 c-52 -52 -97 -92 -99 -89 -3 3 35 45 84 94
l89 88 -19 37 c-24 48 -93 109 -131 117 -16 3 -32 10 -35 15 -7 11 42 0 76
-18z m-80 -5 c0 -5 4 -7 10 -4 5 3 22 -1 37 -9 34 -17 100 -76 87 -76 -5 0 -4
-4 2 -8 6 -4 15 -17 18 -30 7 -19 -5 -35 -76 -102 -45 -44 -86 -80 -90 -80 -4
0 -13 7 -22 15 -8 8 -19 15 -24 15 -5 0 -24 21 -43 47 -46 65 -48 136 -4 180
7 7 16 9 20 5 5 -4 5 -2 2 4 -4 6 1 18 11 26 29 26 72 36 72 17z"/>
<path d="M440 1269 c0 -32 -35 -100 -70 -136 l-31 -31 -2 -152 c-2 -146 -1
-151 18 -146 11 3 60 10 108 17 l88 12 -3 200 -3 199 60 -4 c110 -7 159 -67
160 -193 0 -113 -56 -185 -144 -185 -17 0 -31 -5 -31 -10 0 -6 10 -8 23 -5 38
8 190 25 231 25 145 0 200 249 78 352 -66 55 -131 71 -314 76 l-168 4 0 -23z
m334 -15 c17 -3 37 -11 44 -16 6 -6 12 -8 12 -4 0 10 57 -22 82 -47 36 -35 49
-65 54 -123 3 -39 0 -63 -13 -87 -9 -17 -16 -35 -15 -39 1 -4 -13 -17 -30 -30
-23 -16 -50 -23 -95 -26 -35 -3 -63 0 -63 4 0 5 9 23 19 40 15 24 18 48 17
110 -2 85 -23 141 -68 179 -27 23 -34 25 -112 32 -86 8 -86 7 -86 -213 l0
-182 -72 -10 c-39 -6 -75 -9 -80 -6 -4 3 -7 62 -7 131 0 117 2 128 22 147 12
12 35 46 51 76 16 30 33 60 38 67 10 12 241 10 302 -3z"/>
<path d="M1035 1275 c22 -8 41 -15 42 -15 1 0 9 -13 18 -30 12 -22 15 -65 15
-192 l0 -163 105 3 105 3 0 176 0 176 83 -5 c65 -3 90 -9 114 -26 72 -51 94
-191 48 -305 -7 -16 1 -17 105 -15 l113 3 14 40 c23 63 20 161 -7 218 -26 55
-67 89 -142 120 -49 20 -73 22 -353 24 -275 3 -297 2 -260 -12z m556 -21 c132
-30 199 -105 199 -222 0 -61 -13 -111 -31 -123 -5 -3 -33 -4 -62 -3 -29 2 -62
3 -74 4 -16 0 -23 6 -23 19 0 11 4 22 8 25 14 8 7 118 -12 172 -30 91 -87 124
-212 124 -89 0 -85 10 -87 -191 -2 -165 5 -154 -104 -158 l-63 -2 0 158 c0
116 -4 165 -14 185 l-14 27 211 0 c153 0 229 -4 278 -15z"/>
<path d="M1920 1279 c19 -6 45 -20 58 -32 21 -20 22 -27 22 -192 l0 -172 38
-7 c20 -3 67 -6 105 -6 l67 0 0 180 0 180 47 0 c109 0 174 -70 175 -188 1 -79
-17 -126 -59 -161 l-36 -29 84 -4 c73 -3 90 0 134 22 52 26 86 73 99 135 6 27
3 32 -34 49 -45 22 -115 93 -130 132 -6 14 -10 38 -10 54 0 17 -7 31 -17 36
-10 4 -144 9 -298 11 -205 1 -271 -1 -245 -8z m513 -24 c9 -4 20 -19 23 -34
11 -44 56 -117 85 -137 15 -10 25 -22 22 -28 -3 -5 -2 -6 4 -3 5 3 22 -4 37
-17 27 -21 28 -25 17 -57 -24 -75 -111 -124 -186 -105 l-23 6 21 42 c26 54 28
164 3 223 -17 39 -70 94 -93 95 -7 0 -13 3 -13 8 0 12 -109 5 -125 -8 -11 -10
-15 -47 -17 -177 l-3 -165 -66 -3 c-36 -2 -72 1 -79 5 -9 6 -13 50 -14 168 -1
109 -5 164 -14 174 -6 8 -8 18 -4 23 8 9 399 0 425 -10z"/>
<path d="M61 1073 l-62 -88 22 -17 c11 -10 26 -18 33 -18 9 0 106 148 106 163
0 3 -9 7 -20 10 -11 3 -20 11 -20 18 0 10 3 10 12 1 7 -7 18 -12 26 -12 12 0
12 3 2 15 -7 8 -18 15 -25 15 -6 0 -40 -39 -74 -87z m79 32 c0 -16 -84 -144
-92 -139 -5 3 0 20 12 37 11 18 31 49 43 69 19 33 37 49 37 33z"/>
<path d="M1405 1136 c-29 -13 -55 -51 -55 -82 0 -31 30 -72 61 -83 23 -8 38
-7 64 3 73 31 76 124 5 161 -35 18 -37 18 -75 1z m90 -31 c28 -27 32 -62 12
-90 -13 -16 -14 -15 -9 13 6 42 -23 89 -44 72 -8 -7 -21 -9 -31 -5 -10 5 -25
7 -33 6 -11 -1 -10 3 4 14 30 23 73 19 101 -10z m-45 -38 c22 -2 25 -7 25 -37
0 -32 -3 -35 -30 -36 -39 -1 -65 22 -65 59 0 26 3 29 23 23 12 -4 33 -8 47 -9z"/>
<path d="M2830 1131 c0 -7 -9 -15 -20 -19 -18 -7 -12 -15 49 -82 l69 -75 27
26 27 27 -43 40 c-76 69 -109 94 -109 83z m60 -86 c29 -30 51 -58 47 -62 -8
-7 -117 95 -117 109 0 18 18 5 70 -47z"/>
<path d="M172 1110 c-6 -11 -12 -21 -12 -22 0 -2 20 -3 46 -3 l45 0 -28 22
c-34 28 -35 28 -51 3z"/>
<path d="M1080 840 c-233 -11 -475 -34 -660 -62 -142 -21 -348 -63 -357 -71
-4 -5 81 -2 220 7 l57 4 0 -169 c0 -217 -15 -259 -95 -259 -15 0 -24 -4 -20
-10 8 -13 414 -13 525 0 194 23 299 101 315 235 8 61 -13 147 -45 188 -11 14
-20 27 -20 29 0 1 25 3 56 4 l55 0 -3 -199 -3 -199 -28 -24 c-15 -13 -39 -24
-53 -24 -13 0 -24 -4 -24 -10 0 -6 78 -10 215 -10 137 0 215 4 215 10 0 6 -13
10 -29 10 -16 0 -39 10 -55 25 l-26 24 0 201 0 200 43 0 c29 0 49 -6 60 -17 8
-10 49 -89 91 -175 106 -217 145 -248 337 -269 136 -15 572 -6 649 14 154 39
233 126 233 258 0 55 -5 76 -31 123 -19 35 -25 56 -17 56 34 0 273 -21 295
-26 16 -3 22 -2 15 4 -13 13 -137 46 -245 66 -120 21 -328 44 -515 56 -230 14
-926 20 -1155 10z m1130 -34 c144 -10 244 -18 270 -21 81 -9 156 -19 163 -21
4 -1 11 -2 17 -3 5 0 7 -8 4 -16 -4 -8 -10 -12 -15 -9 -11 7 0 -26 16 -46 50
-62 55 -188 12 -258 -21 -32 -127 -114 -127 -97 0 3 -17 -2 -37 -10 -35 -15
-235 -33 -222 -21 3 3 20 7 38 8 18 1 35 6 37 10 3 4 13 8 23 8 27 0 95 79
116 133 22 57 16 183 -10 223 -9 13 -13 29 -10 35 4 5 2 8 -4 7 -5 -2 -16 6
-24 17 -13 17 -29 20 -129 23 -153 5 -145 17 -142 -236 2 -168 4 -196 20 -213
17 -19 15 -19 -95 -19 l-112 0 16 30 c20 39 23 403 3 427 -11 13 -42 15 -212
10 -181 -5 -201 -7 -219 -25 -19 -20 -19 -20 3 -39 64 -51 104 -98 175 -203
42 -63 95 -134 117 -156 l40 -41 -29 -1 c-15 -1 -57 4 -93 10 -102 17 -162 54
-196 121 -9 18 -22 35 -28 39 -6 4 -8 8 -4 8 3 0 -11 35 -33 77 -21 42 -39 80
-39 85 0 20 -64 108 -83 114 -29 10 -85 6 -109 -7 -18 -10 -19 -22 -15 -207 1
-108 7 -207 11 -220 l9 -23 -101 2 -101 1 11 27 c14 36 11 400 -3 418 -7 8
-32 13 -63 13 -81 0 -95 -27 -50 -92 32 -46 43 -148 20 -202 -26 -63 -103
-124 -180 -143 -57 -14 -116 -22 -156 -21 l-45 0 38 10 c52 14 132 88 153 143
18 47 17 186 -1 216 -5 8 -10 20 -12 28 -1 8 -11 24 -23 35 -18 19 -32 21
-133 21 -83 0 -116 -4 -127 -14 -20 -19 -26 -111 -20 -281 5 -131 6 -135 30
-147 21 -11 8 -13 -92 -11 -65 1 -118 3 -118 5 0 3 5 13 11 24 14 28 12 378
-3 396 -7 9 -7 13 1 14 6 1 14 2 19 3 4 1 32 6 62 11 54 8 81 11 170 20 25 2
45 5 45 5 0 1 29 3 64 5 36 3 70 6 77 9 6 2 81 8 165 12 85 3 156 8 159 11 6
6 999 -4 1100 -11z m-210 -260 c0 -183 -2 -206 -18 -226 l-19 -23 -52 54 c-28
30 -91 112 -139 184 -66 98 -99 138 -136 163 -26 17 -47 33 -45 34 2 0 94 4
204 8 110 3 201 7 203 8 1 1 2 -90 2 -202z m443 176 c51 -56 64 -200 26 -280
-33 -67 -85 -96 -181 -101 l-78 -3 0 201 0 201 108 0 c92 0 111 -3 125 -18z
m-1642 -39 c19 -38 24 -63 23 -123 -1 -147 -72 -220 -216 -220 l-63 0 2 192
c1 106 2 193 3 193 0 0 51 2 114 3 l113 4 24 -49z"/>
<path d="M240 170 c0 -5 5 -10 10 -10 6 0 10 -22 10 -50 0 -27 -4 -50 -10 -50
-5 0 -10 -4 -10 -10 0 -13 86 -13 111 0 25 14 24 47 -1 55 -20 6 -20 7 1 24
19 15 20 18 5 30 -20 17 -116 26 -116 11z m88 -27 c-5 -26 -38 -29 -38 -4 0
15 6 21 21 21 14 0 19 -5 17 -17z m2 -49 c11 -12 11 -18 -2 -31 -20 -20 -38
-9 -38 23 0 27 21 32 40 8z"/>
<path d="M390 171 c0 -6 5 -11 10 -11 14 0 12 -94 -2 -108 -9 -9 -3 -12 27
-12 30 0 36 3 27 12 -16 16 -16 61 1 56 6 -3 13 -14 15 -26 7 -46 63 -55 61
-10 0 22 -1 22 -9 3 -9 -19 -9 -19 -16 2 -3 13 -10 23 -15 23 -5 0 -9 5 -9 10
0 6 6 10 14 10 18 0 27 23 16 40 -10 17 -120 27 -120 11z m88 -30 c-5 -24 -38
-27 -38 -3 0 10 3 21 6 25 11 11 35 -5 32 -22z"/>
<path d="M540 170 c0 -5 5 -10 10 -10 14 0 12 -94 -2 -108 -9 -9 2 -12 50 -12
59 0 62 1 62 25 l0 25 -21 -21 c-25 -25 -43 -20 -47 14 -4 31 12 36 27 10 8
-15 10 -11 10 17 0 19 -3 29 -6 23 -9 -23 -35 -15 -31 10 4 26 35 26 56 -1 10
-14 12 -12 12 11 0 26 -2 27 -60 27 -33 0 -60 -4 -60 -10z"/>
<path d="M707 111 l-33 -71 25 0 c18 0 22 3 14 11 -18 18 -3 39 27 39 33 0 47
-25 22 -39 -12 -8 5 -10 62 -11 69 0 77 2 66 15 -8 10 -11 35 -8 70 5 55 5 55
-24 55 -15 0 -28 -4 -28 -10 0 -5 5 -10 10 -10 6 0 10 -22 10 -49 0 -84 -32
-78 -68 14 -11 27 -24 51 -30 53 -6 2 -26 -28 -45 -67z m52 -3 c1 -5 -8 -8
-19 -8 -23 0 -24 4 -8 33 11 21 11 21 19 2 4 -11 8 -23 8 -27z"/>
<path d="M914 164 c4 -10 0 -22 -10 -29 -15 -11 -15 -14 1 -38 9 -15 15 -34
11 -42 -4 -12 3 -15 29 -15 19 0 35 5 35 10 0 6 -4 10 -9 10 -5 0 -19 16 -31
35 -18 29 -20 38 -10 50 7 8 19 15 26 15 8 0 14 5 14 10 0 6 -14 10 -31 10
-25 0 -30 -3 -25 -16z"/>
<path d="M1038 168 c16 -16 15 -101 0 -116 -9 -9 -2 -12 32 -11 25 0 39 3 33
6 -17 6 -17 66 0 61 6 -3 14 -18 17 -34 6 -37 45 -46 55 -14 4 12 4 24 1 27
-3 4 -6 -1 -6 -10 0 -9 -4 -17 -10 -17 -5 0 -10 9 -10 19 0 11 -6 22 -12 25
-9 3 -8 8 5 16 20 13 22 35 5 46 -6 4 -36 9 -66 10 -42 3 -52 0 -44 -8z m90
-27 c-5 -24 -38 -27 -38 -3 0 10 3 21 6 25 11 11 35 -5 32 -22z"/>
<path d="M1212 157 c-28 -30 -28 -68 1 -95 47 -44 120 -15 120 48 0 63 -78 93
-121 47z m78 -7 c15 -29 9 -81 -12 -93 -25 -16 -48 9 -48 52 0 57 38 82 60 41z"/>
<path d="M1382 164 c-31 -21 -31 -87 0 -108 32 -23 71 -20 96 7 28 30 28 68
-1 95 -27 26 -64 28 -95 6z m75 -24 c16 -34 6 -78 -20 -86 -38 -12 -61 50 -36
97 13 26 41 21 56 -11z"/>
<path d="M1518 168 c7 -7 12 -33 12 -58 0 -25 -5 -51 -12 -58 -9 -9 -6 -12 15
-12 26 0 34 9 20 24 -8 8 -17 96 -9 96 2 0 12 -24 22 -52 24 -76 25 -77 50
-12 l23 59 0 -46 c1 -25 -4 -50 -11 -57 -9 -9 -3 -12 27 -12 30 0 36 3 27 12
-14 14 -16 108 -2 108 6 0 10 4 10 9 0 5 -13 9 -30 9 -25 -1 -31 -7 -44 -42
-9 -27 -16 -36 -20 -26 -3 8 -10 27 -15 43 -9 22 -17 27 -43 27 -25 0 -29 -3
-20 -12z"/>
<path d="M1750 169 c0 -5 5 -9 10 -9 14 0 12 -94 -2 -108 -23 -23 86 -15 113
8 l24 20 -22 19 c-18 15 -20 20 -8 25 23 8 18 35 -7 45 -31 12 -108 12 -108 0z
m95 -29 c0 -8 -10 -16 -22 -18 -18 -3 -23 2 -23 18 0 16 5 21 23 18 12 -2 22
-10 22 -18z m0 -60 c0 -38 -39 -35 -43 3 -3 25 0 28 20 25 17 -2 23 -9 23 -28z"/>
<path d="M1929 110 l-35 -70 25 0 c18 0 22 3 14 11 -18 18 -3 39 27 39 33 0
47 -25 22 -39 -13 -8 -7 -10 27 -11 39 0 42 2 30 16 -8 10 -23 40 -34 67 -12
28 -25 52 -31 54 -6 2 -26 -28 -45 -67z m47 -7 c-2 -3 -11 -3 -19 -1 -11 2
-12 9 -5 28 l10 25 9 -24 c5 -13 7 -26 5 -28z"/>
<path d="M2040 147 c0 -32 0 -32 13 -8 23 46 37 37 37 -23 0 -31 -4 -56 -10
-56 -5 0 -10 -4 -10 -10 0 -5 16 -10 35 -10 19 0 35 5 35 10 0 6 -4 10 -10 10
-5 0 -10 25 -10 55 0 58 16 67 38 22 10 -21 11 -20 11 10 l1 32 -65 0 -65 0 0
-32z"/>
<path d="M2181 148 c0 -31 1 -31 11 -11 22 45 38 36 38 -22 0 -30 -4 -55 -10
-55 -5 0 -10 -4 -10 -10 0 -5 19 -10 43 -10 38 1 40 2 24 14 -14 11 -17 25
-15 63 3 51 17 62 33 26 17 -40 30 -29 19 15 -6 20 -12 22 -70 22 l-64 0 1
-32z"/>
<path d="M2330 172 c0 -5 3 -12 7 -16 11 -11 2 -100 -10 -108 -7 -4 18 -8 56
-8 l67 0 0 31 c0 17 -4 28 -10 24 -5 -3 -10 -12 -10 -20 0 -12 -21 -25 -41
-25 -5 0 -9 25 -9 55 0 30 5 55 10 55 6 0 10 5 10 10 0 6 -16 10 -35 10 -19 0
-35 -4 -35 -8z"/>
<path d="M2460 170 c0 -5 5 -10 10 -10 14 0 12 -94 -2 -108 -9 -9 2 -12 49
-12 57 0 61 2 65 25 6 30 4 31 -23 4 -25 -25 -43 -20 -47 14 -4 31 12 36 27
10 8 -15 10 -11 10 17 0 19 -3 29 -6 23 -9 -23 -35 -15 -31 10 4 26 35 26 56
-1 10 -14 12 -12 12 11 0 26 -2 27 -60 27 -33 0 -60 -4 -60 -10z"/>
<path d="M2621 166 c-19 -23 -5 -50 34 -69 38 -18 45 -34 18 -44 -10 -4 -24 3
-40 21 l-23 27 0 -28 c0 -25 4 -28 39 -31 25 -1 45 3 55 14 27 26 21 38 -42
75 -18 11 -30 24 -27 29 10 16 33 11 55 -12 l20 -22 0 25 c0 21 -5 24 -39 27
-24 1 -43 -3 -50 -12z"/>
</g>
</svg>
