<?xml version="1.0" standalone="no"?>
<!DOCTYPE svg PUBLIC "-//W3C//DTD SVG 20010904//EN"
 "http://www.w3.org/TR/2001/REC-SVG-20010904/DTD/svg10.dtd">
<svg version="1.0" xmlns="http://www.w3.org/2000/svg"
 width="100.000000pt" height="100.000000pt" viewBox="0 0 100.000000 100.000000"
 preserveAspectRatio="xMidYMid meet">
<metadata>
Created by potrace 1.10, written by Peter Selinger 2001-2011
</metadata>
<g transform="translate(0.000000,100.000000) scale(0.100000,-0.100000)"
fill="gray" stroke="none">
<path d="M380 924 c-157 -42 -279 -153 -331 -302 -16 -46 -20 -76 -17 -152 5
-125 40 -204 130 -294 104 -103 207 -141 367 -134 92 3 104 6 184 46 176 87
266 240 254 430 -4 70 -11 96 -40 156 -99 200 -334 307 -547 250z m240 -29
c161 -47 255 -135 311 -295 65 -185 -44 -410 -241 -498 -220 -98 -493 -6 -594
200 -66 136 -56 296 26 416 72 104 171 164 323 195 30 7 124 -3 175 -18z"/>
<path d="M499 870 c-9 -5 -51 -19 -95 -30 -62 -17 -103 -37 -187 -93 -110 -74
-130 -98 -104 -124 13 -14 21 -13 68 2 30 9 69 23 87 31 18 8 36 13 41 10 15
-10 44 -98 34 -105 -18 -12 -60 -136 -62 -185 -2 -54 17 -86 53 -86 12 0 31
-3 43 -6 l22 -6 -19 -36 c-19 -35 -19 -36 1 -50 27 -19 42 -11 79 39 22 32 30
37 30 22 0 -11 15 -37 33 -57 l32 -38 19 21 c15 17 17 25 7 52 -18 52 -16 54
57 56 91 3 106 20 97 112 -4 36 -15 84 -25 105 -11 22 -17 43 -14 48 8 12 51
10 87 -6 54 -22 122 -29 136 -13 23 28 4 46 -159 149 -30 19 -97 48 -148 64
-88 26 -93 29 -75 44 44 38 56 59 43 75 -14 17 -56 19 -81 5z m71 -18 c0 -5
-38 -34 -85 -66 -61 -42 -84 -63 -81 -75 3 -9 10 -35 17 -58 11 -40 39 -60 39
-29 0 23 26 43 52 40 12 -1 28 -3 34 -3 7 -1 15 -12 18 -25 10 -40 65 -44 66
-5 0 3 -38 29 -85 58 -79 48 -102 71 -73 71 6 0 64 -17 127 -37 92 -29 136
-50 214 -101 133 -89 131 -99 -12 -57 -104 31 -109 31 -122 1 -9 -19 -8 -29 6
-49 23 -35 40 -174 24 -193 -8 -10 -36 -14 -95 -14 l-83 0 20 -57 c24 -71 10
-95 -19 -30 -11 25 -23 55 -27 66 -9 30 -17 26 -47 -22 -32 -51 -64 -82 -71
-70 -3 5 8 30 24 56 16 26 29 49 29 52 0 3 -26 5 -59 5 -79 0 -86 9 -72 100
12 74 28 116 57 145 15 15 14 20 -11 78 -15 34 -29 63 -30 64 -1 3 -149 -46
-187 -62 -12 -5 -18 -2 -18 7 0 8 48 46 107 84 81 52 133 77 208 101 105 33
135 38 135 25z m-87 -170 c-13 -2 -23 -8 -23 -13 0 -20 -18 -8 -24 16 -10 40
2 48 37 23 30 -22 31 -23 10 -26z"/>
<path d="M490 600 c0 -36 3 -40 25 -40 23 0 25 4 25 40 0 36 -2 40 -25 40 -22
0 -25 -4 -25 -40z"/>
<path d="M423 580 c-40 -24 -80 -83 -88 -131 l-7 -36 46 -1 c44 0 46 1 46 28
0 36 50 80 90 80 40 0 90 -44 90 -79 0 -26 3 -28 45 -29 41 0 45 2 45 24 0 36
-34 97 -70 128 -39 32 -58 33 -62 4 -2 -19 -10 -24 -45 -26 -40 -3 -43 -1 -50
27 l-8 31 -32 -20z m27 -40 c0 -5 -4 -10 -8 -10 -5 0 -18 -18 -31 -40 -21 -38
-41 -52 -41 -29 0 14 19 50 38 72 16 19 42 23 42 7z m168 -12 c28 -30 45 -75
31 -84 -6 -3 -11 -4 -13 -3 -10 14 -56 99 -56 103 0 13 18 5 38 -16z"/>
<path d="M459 481 c-17 -13 -23 -29 -23 -56 0 -67 77 -101 121 -52 68 72 -21
170 -98 108z m86 -31 c17 -18 17 -21 1 -45 -27 -40 -76 -28 -76 20 0 44 44 59
75 25z"/>
<path d="M330 358 c0 -22 4 -23 75 -23 l75 0 -28 22 c-19 16 -41 22 -74 23
-43 0 -48 -2 -48 -22z"/>
<path d="M568 357 l-28 -22 75 0 c71 0 75 1 75 23 0 20 -5 22 -47 22 -34 -1
-56 -7 -75 -23z"/>
</g>
</svg>
